<svg width="14" height="15" viewBox="0 0 14 15" fill="none" xmlns="http://www.w3.org/2000/svg">
<g clip-path="url(#clip0_3_1754)">
<path fill-rule="evenodd" clip-rule="evenodd" d="M7.00579 0C3.13177 0 0 3.3802 0 7.56198C0 10.9047 2.00663 13.7342 4.79036 14.7357C5.1384 14.811 5.26589 14.573 5.26589 14.3728C5.26589 14.1975 5.25442 13.5966 5.25442 12.9705C3.30557 13.4213 2.89974 12.069 2.89974 12.069C2.58655 11.1926 2.1225 10.9674 2.1225 10.9674C1.48465 10.5041 2.16896 10.5041 2.16896 10.5041C2.87651 10.5542 3.24778 11.2804 3.24778 11.2804C3.87402 12.4321 4.88315 12.1067 5.28912 11.9063C5.34705 11.418 5.53276 11.08 5.72994 10.8922C4.1756 10.7169 2.54023 10.0659 2.54023 7.16127C2.54023 6.33497 2.81844 5.65892 3.25926 5.13315C3.1897 4.94539 2.94606 4.16902 3.32895 3.12992C3.32895 3.12992 3.92048 2.92956 5.25427 3.90613C5.82531 3.74061 6.41422 3.6564 7.00579 3.65569C7.59733 3.65569 8.20034 3.74342 8.75717 3.90613C10.0911 2.92956 10.6826 3.12992 10.6826 3.12992C11.0655 4.16902 10.8217 4.94539 10.7522 5.13315C11.2046 5.65892 11.4714 6.33497 11.4714 7.16127C11.4714 10.0659 9.83599 10.7043 8.27003 10.8922C8.52529 11.1301 8.74555 11.5807 8.74555 12.2944C8.74555 13.3085 8.73408 14.1223 8.73408 14.3726C8.73408 14.573 8.86171 14.811 9.2096 14.7358C11.9933 13.7341 14 10.9047 14 7.56198C14.0114 3.3802 10.8682 0 7.00579 0Z" fill="black"/>
</g>
<defs>
<clipPath id="clip0_3_1754">
<rect width="14" height="15" fill="white"/>
</clipPath>
</defs>
</svg>
